<svg xmlns="http://www.w3.org/2000/svg" viewBox="0 0 225.84 56.9"><defs><style>.cls-1{fill:#d0d73d}.cls-2{fill:#acc946}</style></defs><title>acas logo</title><g id="Layer_2" data-name="Layer 2"><g id="Layer_1-2" data-name="Layer 1"><path class="cls-1" d="M28.45 0a28.45 28.45 0 1 0 13.67 53.41V3.5A28.31 28.31 0 0 0 28.45 0m0 42.12a13.67 13.67 0 1 1 13.67-13.67 13.67 13.67 0 0 1-13.67 13.67m13.67-40.5V3.5a28.44 28.44 0 0 1 14.79 25V1.62z"/><path class="cls-1" d="M42.12 53.41v2.06H56.9v-27a28.44 28.44 0 0 1-14.79 25"/><path class="cls-2" d="M42.12 3.49v49.92a28.46 28.46 0 0 0 0-49.92"/><path class="cls-1" d="M149.68 0a28.45 28.45 0 1 0 13.67 53.41V3.5A28.31 28.31 0 0 0 149.68 0m0 42.12a13.67 13.67 0 1 1 13.67-13.67 13.67 13.67 0 0 1-13.67 13.67m13.67-40.5V3.5a28.44 28.44 0 0 1 14.79 25V1.62z"/><path class="cls-1" d="M163.35 53.41v2.06h14.79v-27a28.44 28.44 0 0 1-14.79 25"/><path class="cls-2" d="M163.35 3.49v49.92a28.46 28.46 0 0 0 0-49.92"/><path class="cls-1" d="M89.12 14.79a13.67 13.67 0 0 1 13.6 10.41h15a28.46 28.46 0 1 0 0 6.78h-15a13.67 13.67 0 1 1-13.6-17.19m110 1.55c0-2.39 2.39-3.54 4.5-3.54 2.78 0 4.89 1.05 5 4h15.61C223.16 5.51 214.44.05 203.81.05c-10.25 0-20.59 6.42-20.59 17.53 0 7.47 6.32 11.59 12.64 13.89 2.3.86 4.6 1.63 6.9 2.39 2.87 1.15 7.18 2.3 7.18 6.13 0 2.78-3.16 4.12-5.56 4.12-3.16 0-5.56-1.63-6-4.89h-15.8c1.25 11.69 10.54 17.62 21.65 17.62 10.82 0 21.65-6.13 21.65-18.1 0-18.77-26.72-14.08-26.72-22.41"/></g></g></svg>