<svg xmlns="http://www.w3.org/2000/svg" viewBox="0 0 42 42"><defs><style>.cls-1{fill:#007a87}.cls-2{fill:#fff}</style></defs><title>feedback logo</title><g id="Layer_2" data-name="Layer 2"><g id="Layer_1-2" data-name="Layer 1"><circle class="cls-1" cx="21" cy="21" r="21"/><path class="cls-2" d="M27 35l-.44-.36-4.72-3.82h-6.73a9.47 9.47 0 0 1-5.84-1.92A9.47 9.47 0 0 1 6 23.57a10.86 10.86 0 0 1 .35-6.68 8.25 8.25 0 0 1 4.21-4.53 13 13 0 0 1 5.94-1.23h10.29a13.32 13.32 0 0 1 3.67.45 8.3 8.3 0 0 1 5.33 4.48 11.34 11.34 0 0 1 1.11 6.46 8.75 8.75 0 0 1-2.1 5 9.28 9.28 0 0 1-4.12 2.64 14.63 14.63 0 0 1-2.3.51l-.66.11-.89.12-.19-2.27.54-.08h.49a8.34 8.34 0 0 0 5-2A6.41 6.41 0 0 0 34.72 22a9.19 9.19 0 0 0-1.14-5.41 6.06 6.06 0 0 0-3.5-2.83 6.77 6.77 0 0 0-2.08-.32h-8.59a43.87 43.87 0 0 0-4.67.07c-3.08.27-5.11 1.56-6.21 4a8.16 8.16 0 0 0-.48 5.11 7.69 7.69 0 0 0 1.84 3.87 6.14 6.14 0 0 0 2.89 1.78 9.17 9.17 0 0 0 2.55.31h6.58a1.84 1.84 0 0 1 1.22.44c1.49 1.23 4.86 3.91 4.9 3.93l.47.37z"/><path class="cls-2" d="M11.85 18.42h18.6v1.55h-18.6zm.19 4.45h10.85v1.55H12.04z"/></g></g></svg>