<svg xmlns="http://www.w3.org/2000/svg" viewBox="0 0 52.11 44.94"><defs><style>.cls-1{fill:#595959}</style></defs><title>lightbulb</title><g id="Layer_2" data-name="Layer 2"><g id="Layer_1-2" data-name="Layer 1"><path class="cls-1" d="M23.07 0h5.97v9.08h-5.97zM0 23.07h9.08v5.97H0zm43.03 0h9.08v5.97h-9.08z"/><path class="cls-1" transform="rotate(-45 10.84 10.84)" d="M7.86 6.3h5.97v9.08H7.86z"/><path class="cls-1" transform="rotate(-45 41.272 10.845)" d="M36.73 7.86h9.08v5.97h-9.08z"/><path class="cls-1" d="M17.18 32.69l.06 3.46a8.81 8.81 0 0 0 17.62 0l.06-3.46a11.34 11.34 0 1 0-17.75 0zm5.07-10.87a5.38 5.38 0 0 1 7.61 7.61l-.85.85-.11 5.79v.05a2.85 2.85 0 1 1-5.69 0l-.11-5.85-.85-.85a5.38 5.38 0 0 1 0-7.61z"/></g></g></svg>