<svg xmlns="http://www.w3.org/2000/svg" viewBox="0 0 26.77 27"><defs><style>.cls-1{fill:#706f6f}.cls-2{fill:#fff}</style></defs><title>question mark</title><g id="Layer_2" data-name="Layer 2"><g id="Layer_1-2" data-name="Layer 1"><path class="cls-1" d="M13.38 27a13.5 13.5 0 0 1 0-27 13.5 13.5 0 0 1 0 27z"/><path class="cls-2" d="M15.24 17.37h-3.69v-1a6 6 0 0 1 2.07-4.75c1.22-1.23 1.25-1.35 1.2-1.73s-.53-.8-1.19-.8a1.51 1.51 0 0 0-1.7 1.73H8.24a5.18 5.18 0 0 1 2-4.36 5.71 5.71 0 0 1 3.39-1.06 4.68 4.68 0 0 1 4.84 4c.3 2.28-.94 3.53-2.25 4.85-1 1-1 1.42-1 2.12zm-3.7 1h3.69v3.23h-3.69z"/></g></g></svg>