<svg xmlns="http://www.w3.org/2000/svg" viewBox="0 0 75.58 90.63"><defs><style>.cls-1{fill:#f6f6f6}</style></defs><title>calculator</title><g id="Layer_2" data-name="Layer 2"><g id="Layer_1-2" data-name="Layer 1"><path class="cls-1" d="M0 0v90.63h75.58V0zm66.18 81.22H9.41V9.41h56.77z"/><path class="cls-1" d="M58.88 34.11H17V18.88h41.88zm-37.64-4.2h33.44v-6.83H21.24zm-4.61 9.5H27.7v5.86H16.63zm15.9 0H43.6v5.86H32.53zm15.09 0h11.07v5.86H47.62zm0 13.91h11.07v5.86H47.62zm0 14.34h11.07v5.86H47.62zM16.63 53.54H27.7v5.86H16.63zm15.9 0H43.6v5.86H32.53zm-15.9 14.12H27.7v5.86H16.63zm15.9 0H43.6v5.86H32.53z"/></g></g></svg>