<svg xmlns="http://www.w3.org/2000/svg" viewBox="0 0 45 45.02"><defs><style>.cls-1{fill:#007a86}</style></defs><title>linkedin</title><g id="Layer_2" data-name="Layer 2"><path class="cls-1" d="M22.5 0A22.51 22.51 0 1 0 45 22.51 22.5 22.5 0 0 0 22.5 0zm-4.79 30.68h-4.07V16.43h4.07zm-2-15.78a2.55 2.55 0 1 1 2.55-2.55 2.55 2.55 0 0 1-2.58 2.55zM32 30.68h-4.1V22a1.88 1.88 0 0 0-.7-1.23 2.38 2.38 0 0 0-1.69 0l-1.67.81v9.13h-4.08V16.43h4.07v.62a6.32 6.32 0 0 1 5.37.19A5.78 5.78 0 0 1 32 22z" id="Layer_1-2" data-name="Layer 1"/></g></svg>