<svg xmlns="http://www.w3.org/2000/svg" xmlns:xlink="http://www.w3.org/1999/xlink" viewBox="0 0 225.84 89.98"><defs><style>.cls-1{fill:none;}.cls-2{clip-path:url(#clip-path);}.cls-3{fill:#cbd23d;}.cls-4{fill:#a7c446;}.cls-5{fill:#aaa;}</style><clipPath id="clip-path" transform="translate(0 0)"><rect class="cls-1" width="225.84" height="89.98"/></clipPath></defs><title>Asset 15</title><g id="Layer_2" data-name="Layer 2"><g id="Layer_1-2" data-name="Layer 1"><g class="cls-2"><path class="cls-3" d="M28.45,0A28.45,28.45,0,1,0,42.12,53.41V3.5A28.31,28.31,0,0,0,28.45,0m0,42.12A13.67,13.67,0,1,1,42.12,28.45,13.67,13.67,0,0,1,28.45,42.12" transform="translate(0 0)"/><path class="cls-3" d="M42.12,1.62V3.5a28.44,28.44,0,0,1,14.79,25V1.62Z" transform="translate(0 0)"/><path class="cls-3" d="M42.12,53.41v2.06H56.9v-27a28.44,28.44,0,0,1-14.79,25" transform="translate(0 0)"/><path class="cls-4" d="M42.12,3.49V53.41a28.46,28.46,0,0,0,0-49.92" transform="translate(0 0)"/><path class="cls-3" d="M149.68,0a28.45,28.45,0,1,0,13.67,53.41V3.5A28.31,28.31,0,0,0,149.68,0m0,42.12a13.67,13.67,0,1,1,13.67-13.67,13.67,13.67,0,0,1-13.67,13.67" transform="translate(0 0)"/><path class="cls-3" d="M163.35,1.62V3.5a28.44,28.44,0,0,1,14.79,25V1.62Z" transform="translate(0 0)"/><path class="cls-3" d="M163.35,53.41v2.06h14.79v-27a28.44,28.44,0,0,1-14.79,25" transform="translate(0 0)"/><path class="cls-4" d="M163.35,3.49V53.41a28.46,28.46,0,0,0,0-49.92" transform="translate(0 0)"/><path class="cls-3" d="M89.12,14.79a13.67,13.67,0,0,1,13.6,10.41h15a28.46,28.46,0,1,0,0,6.78h-15A13.67,13.67,0,1,1,89.12,14.79" transform="translate(0 0)"/><path class="cls-3" d="M199.12,16.34c0-2.39,2.39-3.54,4.5-3.54,2.78,0,4.89,1.05,5,4h15.61C223.16,5.51,214.44.05,203.81.05c-10.25,0-20.59,6.42-20.59,17.53,0,7.47,6.32,11.59,12.64,13.89,2.3.86,4.6,1.63,6.9,2.39,2.87,1.15,7.18,2.3,7.18,6.13,0,2.78-3.16,4.12-5.56,4.12-3.16,0-5.56-1.63-6-4.89h-15.8c1.25,11.69,10.54,17.62,21.65,17.62,10.82,0,21.65-6.13,21.65-18.1,0-18.77-26.72-14.08-26.72-22.41" transform="translate(0 0)"/><polygon class="cls-5" points="7.29 74.35 10.05 74.35 12.3 80.74 14.74 74.35 16.42 74.35 18.81 80.67 21.07 74.35 23.85 74.35 19.75 85.58 17.96 85.58 15.57 79.18 13.1 85.58 11.34 85.58 7.29 74.35"/><path class="cls-5" d="M30,74.06a6,6,0,0,1,3,.8A5.83,5.83,0,0,1,36,80a5.91,5.91,0,0,1-.79,3,5.71,5.71,0,0,1-2.15,2.16,6,6,0,0,1-3,.78,5.6,5.6,0,0,1-4.12-1.72,6,6,0,0,1,.22-8.56A5.64,5.64,0,0,1,30,74.06m0,2.65a2.9,2.9,0,0,0-2.19.91A3.24,3.24,0,0,0,27,80a3.3,3.3,0,0,0,.86,2.37,3.09,3.09,0,0,0,4.39,0,3.62,3.62,0,0,0,0-4.71,2.93,2.93,0,0,0-2.21-.9" transform="translate(0 0)"/><path class="cls-5" d="M37.71,74.35h2.42v1.42a3,3,0,0,1,1-1.27,2.52,2.52,0,0,1,1.43-.43,2.62,2.62,0,0,1,1.15.29l-.88,2.43a1.94,1.94,0,0,0-.82-.25,1.29,1.29,0,0,0-1.1.81,7.37,7.37,0,0,0-.45,3.16v5.09h-2.8Z" transform="translate(0 0)"/><polygon class="cls-5" points="45.01 70.02 47.83 70.02 47.83 78.98 51.98 74.35 55.52 74.35 50.69 79.74 56.1 85.58 52.6 85.58 47.83 80.41 47.83 85.58 45.01 85.58 45.01 70.02"/><path class="cls-5" d="M58.51,69.73a1.72,1.72,0,0,1,1.27.54,1.85,1.85,0,0,1,0,2.59,1.7,1.7,0,0,1-1.25.53,1.73,1.73,0,0,1-1.28-.54,1.82,1.82,0,0,1-.53-1.32,1.8,1.8,0,0,1,1.79-1.8m-1.41,4.63h2.82V85.58H57.11Z" transform="translate(0 0)"/><path class="cls-5" d="M62.45,74.35h2.82V75.5A6.78,6.78,0,0,1,67,74.38a4.19,4.19,0,0,1,1.59-.32,3.86,3.86,0,0,1,2.84,1.17,4,4,0,0,1,1,2.93v7.42H69.63V80.67A12.45,12.45,0,0,0,69.45,78a1.83,1.83,0,0,0-.63-1,1.76,1.76,0,0,0-1.11-.35,2.07,2.07,0,0,0-1.47.57,3.06,3.06,0,0,0-.85,1.58,12.82,12.82,0,0,0-.12,2.28v4.51H62.45Z" transform="translate(0 0)"/><path class="cls-5" d="M83.18,74.35H86V84a6.36,6.36,0,0,1-1.15,4.19A5.74,5.74,0,0,1,80.21,90a8.11,8.11,0,0,1-2.78-.41,5,5,0,0,1-1.9-1.21,5,5,0,0,1-1.15-1.95h3.11a2.58,2.58,0,0,0,1.06.72,4.4,4.4,0,0,0,1.54.24A4,4,0,0,0,81.92,87a2.12,2.12,0,0,0,1-.91,4.61,4.61,0,0,0,.28-1.92,4.7,4.7,0,0,1-1.56,1.07,5,5,0,0,1-1.85.33A5.08,5.08,0,0,1,76,84,6.33,6.33,0,0,1,76,75.53a4.93,4.93,0,0,1,3.57-1.47,4.76,4.76,0,0,1,1.83.36,5.79,5.79,0,0,1,1.73,1.17ZM80.26,76.7a2.93,2.93,0,0,0-2.2.89,3.09,3.09,0,0,0-.87,2.25,3.14,3.14,0,0,0,.89,2.3,3,3,0,0,0,2.23.9,2.89,2.89,0,0,0,2.16-.88,3.51,3.51,0,0,0,0-4.58,3,3,0,0,0-2.21-.88" transform="translate(0 0)"/><path class="cls-5" d="M93,74.35h1q0-2.21.07-2.61a2.16,2.16,0,0,1,.78-1.47,2.92,2.92,0,0,1,1.88-.54,5.89,5.89,0,0,1,2,.4v2.15a3.78,3.78,0,0,0-1-.18,1.06,1.06,0,0,0-.72.21.9.9,0,0,0-.17.64v1.41H98.6v2.38H96.81v8.85H94V76.74H93Z" transform="translate(0 0)"/><path class="cls-5" d="M105.19,74.06a6,6,0,0,1,3,.8,5.83,5.83,0,0,1,3,5.1,5.91,5.91,0,0,1-.79,3,5.71,5.71,0,0,1-2.15,2.16,5.94,5.94,0,0,1-3,.78,5.61,5.61,0,0,1-4.13-1.72,6,6,0,0,1,.22-8.56,5.64,5.64,0,0,1,3.89-1.53m0,2.65a2.9,2.9,0,0,0-2.19.91,3.25,3.25,0,0,0-.88,2.34,3.31,3.31,0,0,0,.86,2.37,3.09,3.09,0,0,0,4.39,0,3.62,3.62,0,0,0,0-4.71,2.92,2.92,0,0,0-2.21-.9" transform="translate(0 0)"/><path class="cls-5" d="M112.86,74.35h2.41v1.42a3,3,0,0,1,1-1.27,2.51,2.51,0,0,1,1.43-.43,2.62,2.62,0,0,1,1.14.29L118,76.78a1.92,1.92,0,0,0-.82-.25,1.29,1.29,0,0,0-1.1.81,7.37,7.37,0,0,0-.45,3.16v5.09h-2.8Z" transform="translate(0 0)"/><path class="cls-5" d="M137,80.78H128a3,3,0,0,0,1,1.91,3.29,3.29,0,0,0,2.17.71,3.76,3.76,0,0,0,2.71-1.1l2.37,1.11a5.6,5.6,0,0,1-2.13,1.86,6.65,6.65,0,0,1-2.94.6,5.82,5.82,0,0,1-4.31-1.67A5.67,5.67,0,0,1,125.25,80a5.87,5.87,0,0,1,1.66-4.27,5.57,5.57,0,0,1,4.16-1.7,5.78,5.78,0,0,1,4.32,1.7A6.15,6.15,0,0,1,137,80.25Zm-2.82-2.22a2.84,2.84,0,0,0-1.1-1.53,3.2,3.2,0,0,0-1.91-.59,3.37,3.37,0,0,0-2.07.66,3.67,3.67,0,0,0-1,1.46Z" transform="translate(0 0)"/><polygon class="cls-5" points="137.3 74.35 140.17 74.35 143.01 80.98 145.84 74.35 148.7 74.35 143.92 85.58 142.09 85.58 137.3 74.35"/><path class="cls-5" d="M160.77,80.78h-9.05a3,3,0,0,0,1,1.91,3.29,3.29,0,0,0,2.17.71,3.76,3.76,0,0,0,2.71-1.1L160,83.41a5.61,5.61,0,0,1-2.13,1.86,6.66,6.66,0,0,1-2.94.6,5.82,5.82,0,0,1-4.31-1.67A5.67,5.67,0,0,1,149,80a5.87,5.87,0,0,1,1.66-4.27,5.57,5.57,0,0,1,4.16-1.7,5.77,5.77,0,0,1,4.32,1.7,6.14,6.14,0,0,1,1.66,4.49Zm-2.82-2.22a2.84,2.84,0,0,0-1.1-1.53,3.21,3.21,0,0,0-1.91-.59,3.37,3.37,0,0,0-2.07.66,3.7,3.7,0,0,0-1,1.46Z" transform="translate(0 0)"/><path class="cls-5" d="M162.44,74.35h2.42v1.42a3,3,0,0,1,1-1.27,2.51,2.51,0,0,1,1.42-.43,2.61,2.61,0,0,1,1.15.29l-.88,2.43a1.94,1.94,0,0,0-.82-.25,1.29,1.29,0,0,0-1.1.81,7.37,7.37,0,0,0-.45,3.16v5.09h-2.8Z" transform="translate(0 0)"/><polygon class="cls-5" points="169.13 74.35 172.01 74.35 174.93 81.4 178.15 74.35 181.03 74.35 174 89.69 171.09 89.69 173.4 84.75 169.13 74.35"/><path class="cls-5" d="M187.07,74.06a6,6,0,0,1,3,.8,5.82,5.82,0,0,1,3,5.1,5.91,5.91,0,0,1-.79,3,5.7,5.7,0,0,1-2.15,2.16,6,6,0,0,1-3,.78A5.61,5.61,0,0,1,183,84.15a6,6,0,0,1,.22-8.56,5.64,5.64,0,0,1,3.89-1.53m0,2.65a2.91,2.91,0,0,0-2.19.91A3.24,3.24,0,0,0,184,80a3.31,3.31,0,0,0,.86,2.37,3.09,3.09,0,0,0,4.39,0,3.62,3.62,0,0,0,0-4.71,2.93,2.93,0,0,0-2.21-.9" transform="translate(0 0)"/><path class="cls-5" d="M195.06,74.35h2.82V75.5a6.78,6.78,0,0,1,1.74-1.12,4.19,4.19,0,0,1,1.59-.32A3.86,3.86,0,0,1,204,75.23a4,4,0,0,1,1,2.93v7.42h-2.79V80.67a12.45,12.45,0,0,0-.18-2.67,1.84,1.84,0,0,0-.63-1,1.76,1.76,0,0,0-1.11-.35,2.07,2.07,0,0,0-1.47.57A3.05,3.05,0,0,0,198,78.8a12.66,12.66,0,0,0-.12,2.28v4.51h-2.82Z" transform="translate(0 0)"/><path class="cls-5" d="M218.79,80.78h-9.05a3,3,0,0,0,1,1.91,3.29,3.29,0,0,0,2.17.71,3.76,3.76,0,0,0,2.71-1.1L218,83.41a5.6,5.6,0,0,1-2.13,1.86,6.65,6.65,0,0,1-2.94.6,5.82,5.82,0,0,1-4.31-1.67A5.67,5.67,0,0,1,207,80a5.87,5.87,0,0,1,1.66-4.27,5.57,5.57,0,0,1,4.16-1.7,5.77,5.77,0,0,1,4.32,1.7,6.14,6.14,0,0,1,1.66,4.49ZM216,78.56a2.84,2.84,0,0,0-1.1-1.53,3.21,3.21,0,0,0-1.91-.59,3.37,3.37,0,0,0-2.07.66,3.72,3.72,0,0,0-1,1.46Z" transform="translate(0 0)"/></g></g></g></svg>