<svg xmlns="http://www.w3.org/2000/svg" viewBox="0 0 52.11 44.94"><defs><style>.cls-1{fill:#595959;}</style></defs><title>lightbulb</title><g id="Layer_2" data-name="Layer 2"><g id="Layer_1-2" data-name="Layer 1"><rect class="cls-1" x="23.07" width="5.97" height="9.08"/><rect class="cls-1" y="23.07" width="9.08" height="5.97"/><rect class="cls-1" x="43.03" y="23.07" width="9.08" height="5.97"/><rect class="cls-1" x="7.86" y="6.3" width="5.97" height="9.08" transform="translate(-4.49 10.84) rotate(-45)"/><rect class="cls-1" x="36.73" y="7.86" width="9.08" height="5.97" transform="translate(4.42 32.36) rotate(-45)"/><path class="cls-1" d="M17.18,32.69l.06,3.46a8.81,8.81,0,0,0,17.62,0l.06-3.46a11.34,11.34,0,1,0-17.75,0Zm5.07-10.87a5.38,5.38,0,0,1,7.61,7.61l-.85.85-.11,5.79v.05a2.85,2.85,0,1,1-5.69,0l-.11-5.85-.85-.85a5.38,5.38,0,0,1,0-7.61Z"/></g></g></svg>