<svg xmlns="http://www.w3.org/2000/svg" viewBox="0 0 45 45.02"><defs><style>.cls-1{fill:#007a86;}</style></defs><title>linkedin</title><g id="Layer_2" data-name="Layer 2"><g id="Layer_1-2" data-name="Layer 1"><path class="cls-1" d="M22.5,0A22.51,22.51,0,1,0,45,22.51,22.5,22.5,0,0,0,22.5,0ZM17.71,30.68H13.64V16.43h4.07Zm-2-15.78a2.55,2.55,0,1,1,2.55-2.55A2.55,2.55,0,0,1,15.68,14.9ZM32,30.68H27.9V22a1.88,1.88,0,0,0-.7-1.23,2.38,2.38,0,0,0-1.69,0l-1.67.81v9.13H19.76V16.43h4.07v.62a6.32,6.32,0,0,1,5.37.19A5.78,5.78,0,0,1,32,22Z"/></g></g></svg>