<svg xmlns="http://www.w3.org/2000/svg" viewBox="0 0 45 45"><defs><style>.cls-1{fill:#007a86;}</style></defs><title>twitter</title><g id="Layer_2" data-name="Layer 2"><g id="Layer_1-2" data-name="Layer 1"><path class="cls-1" d="M22.5,0A22.5,22.5,0,1,0,45,22.5,22.5,22.5,0,0,0,22.5,0Zm8.95,17.91c0,.2,0,.4,0,.6A13.13,13.13,0,0,1,11.25,29.57a9.74,9.74,0,0,0,1.1.06,9.25,9.25,0,0,0,5.73-2,4.62,4.62,0,0,1-4.31-3.21,4.74,4.74,0,0,0,.87.08,4.65,4.65,0,0,0,1.22-.16,4.62,4.62,0,0,1-3.7-4.53v-.06a4.61,4.61,0,0,0,2.09.58,4.62,4.62,0,0,1-1.43-6.16A13.1,13.1,0,0,0,22.33,19a4.62,4.62,0,0,1,7.87-4.21,9.21,9.21,0,0,0,2.93-1.12,4.63,4.63,0,0,1-2,2.55,9.21,9.21,0,0,0,2.65-.73A9.36,9.36,0,0,1,31.45,17.91Z"/></g></g></svg>